<?xml version="1.0" standalone="no"?>
<!DOCTYPE svg PUBLIC "-//W3C//DTD SVG 20010904//EN"
 "http://www.w3.org/TR/2001/REC-SVG-20010904/DTD/svg10.dtd">
<svg version="1.0" xmlns="http://www.w3.org/2000/svg"
 width="700.000000pt" height="700.000000pt" viewBox="0 0 700.000000 700.000000"
 preserveAspectRatio="xMidYMid meet">
<metadata>
Created by potrace 1.14, written by Peter Selinger 2001-2017
</metadata>
<g transform="translate(0.000000,700.000000) scale(0.100000,-0.100000)"
fill="#000000" stroke="none">
<path d="M6650 6983 c0 -19 16 -63 43 -125 35 -77 198 -213 270 -225 l37 -6 0
187 0 186 -175 0 c-160 0 -175 -1 -175 -17z"/>
<path d="M3665 5998 c-114 -12 -257 -52 -352 -98 -85 -40 -189 -106 -212 -134
-7 -9 -17 -16 -22 -16 -5 0 -10 51 -11 113 l-3 112 -315 0 -315 0 0 -705 0
-705 318 -3 317 -2 0 359 c0 429 4 451 95 549 88 96 211 142 377 142 199 0
326 -64 386 -197 15 -33 18 -87 22 -443 l5 -405 323 -3 322 -2 0 478 c0 397
-3 488 -15 537 -49 188 -206 337 -415 394 -141 38 -328 49 -505 29z"/>
<path d="M770 3635 l0 -985 295 0 295 0 0 107 0 107 33 -31 c56 -54 169 -120
259 -151 186 -66 64 -63 2103 -60 l1850 3 100 27 c200 55 342 151 439 296 82
124 116 248 116 427 0 228 -56 373 -199 516 -129 128 -256 182 -487 209 -71 8
-609 10 -1904 8 -1797 -4 -1805 -4 -1891 -25 -129 -32 -242 -79 -330 -138
l-79 -53 0 364 0 364 -300 0 -300 0 0 -985z m4350 87 c273 -8 275 -8 337 -36
72 -33 134 -94 166 -164 18 -39 22 -65 22 -152 0 -96 -2 -110 -28 -158 -38
-72 -106 -138 -175 -169 -53 -24 -72 -27 -257 -33 -110 -4 -924 -9 -1810 -11
-1788 -4 -1648 -8 -1793 62 -226 110 -281 359 -115 522 86 85 205 134 352 145
116 9 2954 3 3301 -6z"/>
<path d="M3265 2180 c-245 -13 -478 -70 -625 -152 -138 -76 -255 -218 -306
-368 -27 -80 -27 -350 0 -430 36 -108 78 -173 171 -265 105 -106 193 -155 367
-204 205 -57 290 -66 648 -66 345 0 424 7 608 50 311 74 501 236 568 485 23
83 26 328 5 410 -74 296 -323 470 -751 524 -144 18 -500 27 -685 16z m487
-394 c92 -20 166 -57 220 -112 72 -72 92 -121 92 -229 1 -109 -22 -164 -96
-237 -97 -95 -221 -130 -453 -130 -233 0 -359 38 -457 139 -68 70 -92 129 -92
228 0 203 133 322 394 355 97 12 306 4 392 -14z"/>
</g>
</svg>
