<svg width="756" height="144" viewBox="0 0 756 144" xmlns="http://www.w3.org/2000/svg">
<path d="M0.665039 41.1999V142H46.065V94.3999C46.065 86.1999 49.265 79.5999 55.265 74.5999C61.465 69.5999 69.6651 66.9999 79.8651 66.9999C89.6651 66.9999 97.0651 69.1999 102.065 73.5999C106.865 77.9999 109.265 84.1999 109.265 92.1999V142H155.265V78.3999C155.265 67.3999 150.865 58.1999 141.865 50.3999C133.065 42.7999 119.665 38.9999 101.865 38.9999H100.265C78.065 38.9999 59.865 45.3999 45.665 58.3999V41.1999H0.665039Z" fill="#FFFAE9"/>
<path d="M175.86 0.399902V141.2H217.86V125.8C218.86 127.2 220.46 128.6 222.66 130.4C224.86 132 227.86 134 231.66 136.2C235.66 138.2 240.86 140 247.26 141.6C249.86 142.2 252.66 142.6 255.46 143C259.46 143.4 496.46 143.6 500.86 143.6H503.46C524.86 143.6 541.06 138.8 551.66 129C562.26 119.2 567.66 106.6 567.66 91.1999V87.5999C567.66 72.7999 562.66 60.5999 552.46 51.1999C542.46 41.5999 526.66 36.9999 505.06 36.9999H502.06C498.06 36.9999 261.46 37.1999 257.66 37.3999C241.26 39.1999 228.26 44.3999 218.26 52.9999V0.399902H175.86ZM218.26 90.5999V89.7999C218.26 82.5999 221.66 76.5999 228.66 71.3999C235.66 66.1999 245.06 63.5999 256.86 63.5999H257.86C262.26 63.5999 498.86 63.9999 502.26 64.5999C508.46 65.5999 513.26 67.7999 516.66 70.9999C521.86 75.9999 524.46 82.1999 524.46 89.7999V90.5999C524.46 97.5999 521.66 103.8 515.86 109C512.46 112.2 507.86 114.4 502.06 115.6C498.46 116.4 261.86 116.8 257.46 116.8H256.66C244.66 116.8 235.26 114.2 228.46 109C221.66 103.8 218.26 97.5999 218.26 90.5999Z" fill="#FFFAE9"/>
<path d="M677.365 143.6C729.765 143.6 755.965 126.2 755.965 91.3999V87.9999C755.965 53.9999 729.765 36.9999 677.365 36.9999H662.765C650.565 36.9999 639.565 37.9999 630.165 40.1999C620.765 42.1999 613.165 44.7999 607.365 48.1999C601.565 51.5999 596.965 55.3999 593.365 60.1999C589.765 64.7999 587.365 69.1999 585.965 73.7999C584.565 78.3999 583.965 82.9999 583.965 87.9999V91.3999C583.965 96.3999 584.565 101.2 585.965 105.8C587.365 110.4 589.765 115 593.565 119.8C597.165 124.4 601.765 128.6 607.565 132C613.365 135.4 620.965 138 630.365 140.2C639.765 142.4 650.765 143.6 662.965 143.6H677.365ZM670.165 116.4C655.965 116.4 645.765 113.8 639.765 108.6C633.565 103.6 630.565 97.3999 630.565 90.3999V89.3999C630.565 81.9999 633.565 75.7999 639.565 70.9999C645.565 66.1999 655.765 63.7999 670.165 63.7999H670.365C684.365 63.7999 694.565 66.1999 700.565 71.1999C706.765 75.9999 709.765 82.1999 709.765 89.3999V90.3999C709.765 97.3999 706.765 103.6 700.565 108.6C694.565 113.8 684.365 116.4 670.165 116.4Z" fill="#FFFAE9"/>
</svg>
