<svg width="743" height="144" viewBox="0 0 743 144" fill="none" xmlns="http://www.w3.org/2000/svg">
<path d="M0.200012 41.2V142H45.6V94.4C45.6 86.2 48.8 79.6 54.8 74.6C61 69.6 69.2 67 79.4 67C89.2 67 96.6 69.2 101.6 73.6C106.4 78 108.8 84.2 108.8 92.2V142H154.8V78.4C154.8 67.4 150.4 58.2 141.4 50.4C132.6 42.8 119.2 39 101.4 39H99.8C77.6 39 59.4 45.4 45.2 58.4V41.2H0.200012Z" fill="#FFFAE9"/>
<path d="M175.395 0.399994V141.2H217.395V125.8C218.395 127.2 219.995 128.6 222.195 130.4C224.395 132 227.395 134 231.195 136.2C235.195 138.2 240.395 140 246.795 141.6C249.395 142.2 252.195 142.6 254.995 143C258.995 143.4 495.995 143.6 500.395 143.6H502.995C524.395 143.6 540.595 138.8 551.195 129C561.795 119.2 567.195 106.6 567.195 91.2V87.6C567.195 72.8 562.195 60.6 551.995 51.2C541.995 41.6 526.195 37 504.595 37H501.595C497.595 37 260.995 37.2 257.195 37.4C240.795 39.2 227.795 44.4 217.795 53V0.399994H175.395ZM217.795 90.6V89.8C217.795 82.6 221.195 76.6 228.195 71.4C235.195 66.2 244.595 63.6 256.395 63.6H257.395C261.795 63.6 498.395 64 501.795 64.6C507.995 65.6 512.795 67.8 516.195 71C521.395 76 523.995 82.2 523.995 89.8V90.6C523.995 97.6 521.195 103.8 515.395 109C511.995 112.2 507.395 114.4 501.595 115.6C497.995 116.4 261.395 116.8 256.995 116.8H256.195C244.195 116.8 234.795 114.2 227.995 109C221.195 103.8 217.795 97.6 217.795 90.6Z" fill="#FFFAE9"/>
<path d="M587.7 41.2V142H633.1V94.4C633.1 86.2 636.3 79.6 642.3 74.6C648.5 69.6 656.7 67 666.9 67C676.7 67 684.1 69.2 689.1 73.6C693.9 78 696.3 84.2 696.3 92.2V142H742.3V78.4C742.3 67.4 737.9 58.2 728.9 50.4C720.1 42.8 706.7 39 688.9 39H687.3C665.1 39 646.9 45.4 632.7 58.4V41.2H587.7Z" fill="#FFFAE9"/>
</svg>
