<svg width="773" height="202" viewBox="0 0 773 202" fill="none" xmlns="http://www.w3.org/2000/svg">
<path d="M10.665 60.1999V161H56.065V113.4C56.065 105.2 59.265 98.5999 65.265 93.5999C71.465 88.5999 79.6651 85.9999 89.8651 85.9999C99.6651 85.9999 107.065 88.1999 112.065 92.5999C116.865 96.9999 119.265 103.2 119.265 111.2V161H165.265V97.3999C165.265 86.3999 160.865 77.1999 151.865 69.3999C143.065 61.7999 129.665 57.9999 111.865 57.9999H110.265C88.065 57.9999 69.865 64.3999 55.665 77.3999V60.1999H10.665Z" fill="#FFFAE9"/>
<path d="M185.86 19.3999V160.2H227.86V144.8C228.86 146.2 230.46 147.6 232.66 149.4C234.86 151 237.86 153 241.66 155.2C245.66 157.2 250.86 159 257.26 160.6C259.86 161.2 262.66 161.6 265.46 162C269.46 162.4 506.46 162.6 510.86 162.6H513.46C534.86 162.6 551.06 157.8 561.66 148C572.26 138.2 577.66 125.6 577.66 110.2V106.6C577.66 91.7999 572.66 79.5999 562.46 70.1999C552.46 60.5999 536.66 55.9999 515.06 55.9999H512.06C508.06 55.9999 271.46 56.1999 267.66 56.3999C251.26 58.1999 238.26 63.3999 228.26 71.9999V19.3999H185.86ZM228.26 109.6V108.8C228.26 101.6 231.66 95.5999 238.66 90.3999C245.66 85.1999 255.06 82.5999 266.86 82.5999H267.86C272.26 82.5999 508.86 82.9999 512.26 83.5999C518.46 84.5999 523.26 86.7999 526.66 89.9999C531.86 94.9999 534.46 101.2 534.46 108.8V109.6C534.46 116.6 531.66 122.8 525.86 128C522.46 131.2 517.86 133.4 512.06 134.6C508.46 135.4 271.86 135.8 267.46 135.8H266.66C254.66 135.8 245.26 133.2 238.46 128C231.66 122.8 228.26 116.6 228.26 109.6Z" fill="#FFFAE9"/>
<path d="M687.365 162.6C739.765 162.6 765.965 145.2 765.965 110.4V107C765.965 72.9999 739.765 55.9999 687.365 55.9999H672.765C660.565 55.9999 649.565 56.9999 640.165 59.1999C630.765 61.1999 623.165 63.7999 617.365 67.1999C611.565 70.5999 606.965 74.3999 603.365 79.1999C599.765 83.7999 597.365 88.1999 595.965 92.7999C594.565 97.3999 593.965 102 593.965 107V110.4C593.965 115.4 594.565 120.2 595.965 124.8C597.365 129.4 599.765 134 603.565 138.8C607.165 143.4 611.765 147.6 617.565 151C623.365 154.4 630.965 157 640.365 159.2C649.765 161.4 660.765 162.6 672.965 162.6H687.365ZM680.165 135.4C665.965 135.4 655.765 132.8 649.765 127.6C643.565 122.6 640.565 116.4 640.565 109.4V108.4C640.565 101 643.565 94.7999 649.565 89.9999C655.565 85.1999 665.765 82.7999 680.165 82.7999H680.365C694.365 82.7999 704.565 85.1999 710.565 90.1999C716.765 94.9999 719.765 101.2 719.765 108.4V109.4C719.765 116.4 716.765 122.6 710.565 127.6C704.565 132.8 694.365 135.4 680.165 135.4Z" fill="#FFFAE9"/>
</svg>
