<svg width="413" height="414" viewBox="0 0 413 414" fill="none" xmlns="http://www.w3.org/2000/svg">
<path d="M129.103 28.2V129H174.503V81.4C174.503 73.2 177.703 66.6 183.703 61.6C189.903 56.6 198.103 54 208.303 54C218.103 54 225.503 56.2 230.503 60.6C235.303 65 237.703 71.2 237.703 79.2V129H283.703V65.4C283.703 54.4 279.303 45.2 270.303 37.4C261.503 29.8 248.103 26 230.303 26H228.703C206.503 26 188.303 32.4 174.103 45.4V28.2H129.103Z" fill="#FFFAE9"/>
<path d="M10.5479 125.4V266.2H52.5479V250.8C53.5479 252.2 55.1479 253.6 57.3479 255.4C59.5479 257 62.5479 259 66.3479 261.2C70.3479 263.2 75.5479 265 81.9479 266.6C84.5479 267.2 87.3479 267.6 90.1479 268C94.1479 268.4 331.148 268.6 335.548 268.6H338.148C359.548 268.6 375.748 263.8 386.348 254C396.948 244.2 402.348 231.6 402.348 216.2V212.6C402.348 197.8 397.348 185.6 387.148 176.2C377.148 166.6 361.348 162 339.748 162H336.748C332.748 162 96.1479 162.2 92.3479 162.4C75.9479 164.2 62.9479 169.4 52.9479 178V125.4H10.5479ZM52.9479 215.6V214.8C52.9479 207.6 56.3478 201.6 63.3479 196.4C70.3479 191.2 79.7478 188.6 91.5479 188.6H92.5479C96.9478 188.6 333.548 189 336.948 189.6C343.148 190.6 347.948 192.8 351.348 196C356.548 201 359.148 207.2 359.148 214.8V215.6C359.148 222.6 356.348 228.8 350.548 234C347.148 237.2 342.548 239.4 336.748 240.6C333.148 241.4 96.5479 241.8 92.1479 241.8H91.3479C79.3479 241.8 69.9479 239.2 63.1479 234C56.3479 228.8 52.9479 222.6 52.9479 215.6Z" fill="#FFFAE9"/>
<path d="M213.615 406.6C266.015 406.6 292.215 389.2 292.215 354.4V351C292.215 317 266.015 300 213.615 300H199.015C186.815 300 175.815 301 166.415 303.2C157.015 305.2 149.415 307.8 143.615 311.2C137.815 314.6 133.215 318.4 129.615 323.2C126.015 327.8 123.615 332.2 122.215 336.8C120.815 341.4 120.215 346 120.215 351V354.4C120.215 359.4 120.815 364.2 122.215 368.8C123.615 373.4 126.015 378 129.815 382.8C133.415 387.4 138.015 391.6 143.815 395C149.615 398.4 157.215 401 166.615 403.2C176.015 405.4 187.015 406.6 199.215 406.6H213.615ZM206.415 379.4C192.215 379.4 182.015 376.8 176.015 371.6C169.815 366.6 166.815 360.4 166.815 353.4V352.4C166.815 345 169.815 338.8 175.815 334C181.815 329.2 192.015 326.8 206.415 326.8H206.615C220.615 326.8 230.815 329.2 236.815 334.2C243.015 339 246.015 345.2 246.015 352.4V353.4C246.015 360.4 243.015 366.6 236.815 371.6C230.815 376.8 220.615 379.4 206.415 379.4Z" fill="#FFFAE9"/>
</svg>
