<svg width="393" height="379" viewBox="0 0 393 379" fill="none" xmlns="http://www.w3.org/2000/svg">
<path d="M119.102 2.20001V103H164.502V55.4C164.502 47.2 167.702 40.6 173.702 35.6C179.902 30.6 188.102 28 198.302 28C208.102 28 215.502 30.2 220.502 34.6C225.302 39 227.702 45.2 227.702 53.2V103H273.702V39.4C273.702 28.4 269.302 19.2 260.302 11.4C251.502 3.8 238.102 0 220.302 0H218.702C196.502 0 178.302 6.4 164.102 19.4V2.20001H119.102Z" fill="#FFFAE9"/>
<path d="M0.547668 99.4V240.2H42.5477V224.8C43.5477 226.2 45.1477 227.6 47.3477 229.4C49.5477 231 52.5477 233 56.3477 235.2C60.3477 237.2 65.5477 239 71.9477 240.6C74.5477 241.2 77.3477 241.6 80.1477 242C84.1477 242.4 321.148 242.6 325.548 242.6H328.148C349.548 242.6 365.748 237.8 376.348 228C386.948 218.2 392.348 205.6 392.348 190.2V186.6C392.348 171.8 387.348 159.6 377.148 150.2C367.148 140.6 351.348 136 329.748 136H326.748C322.748 136 86.1477 136.2 82.3477 136.4C65.9477 138.2 52.9477 143.4 42.9477 152V99.4H0.547668ZM42.9477 189.6V188.8C42.9477 181.6 46.3477 175.6 53.3477 170.4C60.3477 165.2 69.7477 162.6 81.5477 162.6H82.5477C86.9477 162.6 323.548 163 326.948 163.6C333.148 164.6 337.948 166.8 341.348 170C346.548 175 349.148 181.2 349.148 188.8V189.6C349.148 196.6 346.348 202.8 340.548 208C337.148 211.2 332.548 213.4 326.748 214.6C323.148 215.4 86.5477 215.8 82.1477 215.8H81.3477C69.3477 215.8 59.9477 213.2 53.1477 208C46.3477 202.8 42.9477 196.6 42.9477 189.6Z" fill="#FFFAE9"/>
<path d="M119.102 278.2V379H164.502V331.4C164.502 323.2 167.702 316.6 173.702 311.6C179.902 306.6 188.102 304 198.302 304C208.102 304 215.502 306.2 220.502 310.6C225.302 315 227.702 321.2 227.702 329.2V379H273.702V315.4C273.702 304.4 269.302 295.2 260.302 287.4C251.502 279.8 238.102 276 220.302 276H218.702C196.502 276 178.302 282.4 164.102 295.4V278.2H119.102Z" fill="#FFFAE9"/>
</svg>
